# xmcd CD database file
#
# Track frame offsets:
#	150
#	14910
#	31585
#	46825
#	68222
#	80610
#	98230
#	113747
#	132410
#	151715
#	166077
#	181005
#	204665
#	220135
#	238860
#	257177
#	273917
#
# Disc length: 3853 seconds
#
# Revision: 0
# Processed by: cddbd v1.5.1PL0 Copyright (c) Steve Scherf et al.
# Submitted via: CDex 1.51
#
DISCID=e30f0b11
DTITLE=Various Artist - SUPER HERO CHRONICLE スーパー戦隊 主題歌・挿入歌大全集? DISC3
DYEAR=2003
DGENRE=Anime
TTITLE0=北原拓/フラッシュマン魂
TTITLE1=丸山裕子/ボクはマグ
TTITLE2=北原拓//フラッシュマンの誓い
TTITLE3=こおろぎ'73、SHINES セリフ：宮内タカユキ/アクション,No.1
TTITLE4=北原拓/ファイティングポーズ、フラッシュマン！
TTITLE5=北原拓 コーラス：こおろぎ'73、SHINES/ハートは火花さ、フラッシュマン
TTITLE6=影山ヒロノブ/光戦隊マスクマン
TTITLE7=影山ヒロノブ コーラス：SHINES/燃えるぜファイアー
TTITLE8=ジ・アングラーズ/俺たちアングラー
TTITLE9=山野さと子/レディアクションきめたらおしゃれ
TTITLE10=影山ヒロノブ コーラス：こおろぎ'73、SHINES/ショットボンバー全力集中
TTITLE11=ミラクル・ボンバーズ/アクション・ファンタジー
TTITLE12=影山ヒロノブ/オーラに輝け！グレートファイブ
TTITLE13=三浦京也/テレパサイズしてくれ
TTITLE14=影山ヒロノブ/出してみようぜ！オーラパワー
TTITLE15=影山ヒロノブ コーラス：こおろぎ'73、SHINES/テン・アイズ〜5人の瞳〜
TTITLE16=影山ヒロノブ/愛のソルジャー
EXTD=YEAR: 2003
EXTT0=
EXTT1=
EXTT2=
EXTT3=
EXTT4=
EXTT5=
EXTT6=
EXTT7=
EXTT8=
EXTT9=
EXTT10=
EXTT11=
EXTT12=
EXTT13=
EXTT14=
EXTT15=
EXTT16=
PLAYORDER=
